<svg id="图层_1" data-name="图层 1" xmlns="http://www.w3.org/2000/svg" viewBox="0 0 48 48"><defs><style>.cls-1{fill:#38979b;}.cls-2{fill:none;}</style></defs><title>home-active</title><path class="cls-1" d="M26.46,5.71,42,16.07a4.46,4.46,0,0,1,2,3.7V39.6A4.44,4.44,0,0,1,39.54,44H8.46A4.44,4.44,0,0,1,4,39.6V19.77a4.46,4.46,0,0,1,2-3.7L21.54,5.71a4.45,4.45,0,0,1,4.92,0ZM27.89,29.6H20.11a1.67,1.67,0,0,0,0,3.33h7.78a1.67,1.67,0,0,0,0-3.33Zm0,0"/><rect class="cls-2" x="26.22" y="29.02" width="1.11" height="3.22"/></svg>